:version 1.10
:name ASF
:units
  mass 1
  length 1
  angle deg
:documentation
  ASF file generated by Kaydara
:root
  axis xyz
  order  tx ty tz rx ry rz
  position 0 0 0
  orientation 0 0 0
:bonedata
  begin
    id 1
    name RightUpLegDummy
    direction -1 2.30186e-007 8.31532e-007
    length 4.46685
    axis 0 0 0 xyz
  end
  begin
    id 2
    name RightUpLeg
    direction -2.30187e-007 -1 1.24343e-010
    length 16.4045
    axis -3.49089 -0.000906625 0.000286804 xyz
    dof rx ry rz
  end
  begin
    id 3
    name RightLeg
    direction -2.30181e-007 -1 -4.17157e-009
    length 17.5097
    axis 3.68512 0.0193738 -0.131023 xyz
    dof rx ry rz
  end
  begin
    id 4
    name RightFoot
    direction 8.31421e-007 -4.51202e-011 1
    length 6.49508
    axis 4.81691e-005 -0.120479 -0.188788 xyz
    dof rx ry rz
  end
  begin
    id 5
    name RightToes
    direction 0.00124746 -0.014064 0.9999
    length 3.85082
    axis 0.000481921 0.542163 -0.142578 xyz
    dof rx ry rz
  end
  begin
    id 6
    name SpineDummy
    direction 0.0717043 0.9409 -0.331007
    length 10.0032
    axis 0 0 0 xyz
  end
  begin
    id 7
    name Spine
    direction 2.30186e-007 1 4.58806e-011
    length 9.84055
    axis -0.001389 0.000121418 2.40972e-006 xyz
    dof rx ry rz
  end
  begin
    id 8
    name Spine1
    direction 0 0 0
    length 0
    axis -0.001389 0.000121451 1.30017e-006 xyz
    dof rx ry rz
  end
  begin
    id 9
    name HEadDummy
    direction -0.00347485 0.950688 -0.310128
    length 8.00997
    axis -0.001389 0.000121451 1.30017e-006 xyz
  end
  begin
    id 10
    name HEad
    direction -0.0222688 0.980941 0.193023
    length 5.12695
    axis -0.001389 0.000121451 1.30017e-006 xyz
    dof rx ry rz
  end
  begin
    id 11
    name LeftShoulder1Dummy
    direction 0.988871 0.146793 -0.0242004
    length 3.5792
    axis -0.001389 0.000121451 1.30017e-006 xyz
  end
  begin
    id 12
    name LeftShoulder1
    direction 0.993832 0.108932 0.020779
    length 4.16823
    axis -0.001389 0.000121451 1.30017e-006 xyz
    dof rx ry rz
  end
  begin
    id 13
    name LeftArm
    direction 1 3.44807e-006 -8.31404e-007
    length 9.91437
    axis -23.1894 0.134784 0.967509 xyz
    dof rx ry rz
  end
  begin
    id 14
    name LeftForeArm
    direction 1 3.44842e-006 -8.31581e-007
    length 9.08575
    axis -9.91835 -0.06569 -0.177793 xyz
    dof rx ry rz
  end
  begin
    id 15
    name LeftHand
    direction 0.992938 -0.0411636 0.11126
    length 5.32135
    axis -0.00960232 -0.00340091 0.185173 xyz
    dof rx ry rz
  end
  begin
    id 16
    name RightShoulderDummy
    direction -0.988871 0.146793 -0.0241962
    length 3.5792
    axis -0.001389 0.000121451 1.30017e-006 xyz
  end
  begin
    id 17
    name RightShoulder
    direction -0.993832 0.108933 0.0207785
    length 4.16823
    axis 0.215806 0.000203643 -0.0068026 xyz
    dof rx ry rz
  end
  begin
    id 18
    name RightArm
    direction -1 3.90912e-006 8.31284e-007
    length 9.91437
    axis -23.2009 -0.134239 -0.964101 xyz
    dof rx ry rz
  end
  begin
    id 19
    name RightForeArm
    direction -1 3.90882e-006 8.31502e-007
    length 9.08575
    axis -9.92322 0.0658061 0.178867 xyz
    dof rx ry rz
  end
  begin
    id 20
    name RightHand
    direction -0.992843 -0.0414603 0.112003
    length 5.28593
    axis -0.00960638 0.00330671 -0.185228 xyz
    dof rx ry rz
  end
  begin
    id 21
    name LeftUpLegDummy
    direction 1 -2.30186e-007 -8.31532e-007
    length 4.46685
    axis 0 0 0 xyz
  end
  begin
    id 22
    name LeftUpLeg
    direction -2.30187e-007 -1 6.00931e-010
    length 16.4045
    axis -3.48766 0.00143442 -0.000524262 xyz
    dof rx ry rz
  end
  begin
    id 23
    name LeftLeg
    direction -2.30187e-007 -1 1.6669e-009
    length 17.5097
    axis 3.68178 -0.00654042 -0.000285133 xyz
    dof rx ry rz
  end
  begin
    id 24
    name LeftFoot
    direction 8.31532e-007 -4.54478e-011 1
    length 6.49508
    axis 1.87233e-006 4.66016e-005 -8.6538e-006 xyz
    dof rx ry rz
  end
  begin
    id 25
    name LeftToes
    direction 0.00818058 -0.00485161 0.999955
    length 3.85048
    axis 1.06247e-005 4.65869e-005 -8.65513e-006 xyz
    dof rx ry rz
  end
:hierarchy
  begin
    root RightUpLegDummy SpineDummy LeftUpLegDummy
    RightUpLegDummy RightUpLeg
    RightUpLeg RightLeg
    RightLeg RightFoot
    RightFoot RightToes
    SpineDummy Spine
    Spine Spine1
    Spine1 HEadDummy LeftShoulder1Dummy RightShoulderDummy
    HEadDummy HEad
    LeftShoulder1Dummy LeftShoulder1
    LeftShoulder1 LeftArm
    LeftArm LeftForeArm
    LeftForeArm LeftHand
    RightShoulderDummy RightShoulder
    RightShoulder RightArm
    RightArm RightForeArm
    RightForeArm RightHand
    LeftUpLegDummy LeftUpLeg
    LeftUpLeg LeftLeg
    LeftLeg LeftFoot
    LeftFoot LeftToes
  end

:SAMPLES-PER-SECOND 30
:FULLY-SPECIFIED
:DEGREES
1
root  -1.32807 34.0493 0.44612 178.105 -3.02893 179.424
RightUpLeg  5.57671 -7.11606 -0.205665
RightLeg  1.52973 -1.9299 0.0731654
RightFoot  5.26163 0.0226726 -0.20938
RightToes  -24.9918 -0.11731 -0.218903
Spine  1.64843 -1.84648 -0.862777
Spine1  3.33033 -3.67157 -1.87587
HEad  23.4071 1.47311 5.44999
LeftShoulder1  0 -2.42657e-020 -4.95415e-022
LeftArm  -71.8361 12.4656 -6.85349
LeftForeArm  55.8725 -22.6273 -4.17108
LeftHand  0.63274 -7.83066 -9.60342
RightShoulder  0 2.42657e-020 1.07489e-018
RightArm  -74.4586 -7.48936 6.90998
RightForeArm  64.6841 14.0393 2.46884
RightHand  -0.651756 23.5325 -2.75896
LeftUpLeg  4.56532 3.53844 -0.422017
LeftLeg  4.60004 -11.6663 -0.18622
LeftFoot  2.24734 0.0122763 -0.486945
LeftToes  -2.98896 2.37847e-007 4.89147e-008
2
root  -1.30086 34.0524 0.513119 178.126 -3.23944 179.424
RightUpLeg  5.45101 -7.05722 -0.11537
RightLeg  1.55878 -2.20157 0.0822967
RightFoot  5.31202 0.0243794 -0.235884
RightToes  -24.7767 -0.11731 -0.218903
Spine  1.5839 -1.886 -0.903523
Spine1  3.2027 -3.75086 -1.954
HEad  23.2861 1.18634 5.8353
LeftShoulder1  0 -2.42657e-020 -4.95415e-022
LeftArm  -71.5737 12.4468 -6.24491
LeftForeArm  56.2834 -22.7688 -4.19958
LeftHand  0.68309 -8.05613 -10.0559
RightShoulder  0 2.42657e-020 1.07489e-018
RightArm  -75.0993 -7.5751 6.18273
RightForeArm  65.182 13.5986 2.38546
RightHand  -0.698912 23.4099 -3.0033
LeftUpLeg  4.39873 3.17668 -0.415872
LeftLeg  4.68003 -11.4537 -0.198779
LeftFoot  2.24734 0.0116037 -0.476492
LeftToes  -2.14123 2.37847e-007 4.89147e-008
3
root  -1.27526 34.0566 0.597922 178.257 -3.42018 179.421
RightUpLeg  5.04753 -6.88911 -0.00345542
RightLeg  1.84809 -2.5714 0.083134
RightFoot  5.23716 0.0262903 -0.265559
RightToes  -24.4924 -0.11731 -0.218903
Spine  1.49718 -1.90159 -0.970811
Spine1  3.0301 -3.78229 -2.08033
HEad  23.1267 0.921383 6.2994
LeftShoulder1  0 -2.42657e-020 -4.95415e-022
LeftArm  -71.4256 12.4856 -5.56373
LeftForeArm  56.6442 -22.8281 -4.21114
LeftHand  0.682817 -8.0961 -10.0043
RightShoulder  0 2.42657e-020 1.07489e-018
RightArm  -75.776 -7.98194 5.70137
RightForeArm  65.5339 13.4885 2.36411
RightHand  -0.69249 23.3774 -2.9771
LeftUpLeg  3.99481 2.87237 -0.44103
LeftLeg  4.90401 -11.1968 -0.237923
LeftFoot  2.24958 0.0108876 -0.465364
LeftToes  -2.69261 2.37847e-007 4.89147e-008
4
root  -1.25169 34.0598 0.686285 178.208 -3.52892 179.443
RightUpLeg  4.62255 -6.91335 0.0689842
RightLeg  2.48346 -2.67851 0.0570225
RightFoot  5.08743 0.0263866 -0.267055
RightToes  -24.4017 -0.11731 -0.218903
Spine  1.45905 -1.87836 -1.01399
Spine1  2.95299 -3.73524 -2.16004
HEad  22.9575 0.633484 6.72326
LeftShoulder1  0 -2.42657e-020 -4.95415e-022
LeftArm  -71.3983 12.4708 -4.91499
LeftForeArm  57.0202 -22.8515 -4.2152
LeftHand  0.672869 -8.13796 -9.88337
RightShoulder  0 2.42657e-020 1.07489e-018
RightArm  -76.9555 -8.47791 5.36099
RightForeArm  65.8733 13.5537 2.37538
RightHand  -0.714283 23.2368 -3.10385
LeftUpLeg  3.73624 1.97031 -0.570555
LeftLeg  5.2053 -10.1876 -0.270121
LeftFoot  2.19463 0.00755143 -0.413517
LeftToes  -3.11424 2.37847e-007 4.89147e-008
5
root  -1.23614 34.0596 0.773903 178.166 -3.60712 179.449
RightUpLeg  4.25162 -6.86505 0.111138
RightLeg  3.01381 -2.78894 0.0336566
RightFoot  4.9511 0.026492 -0.268692
RightToes  -24.4895 -0.11731 -0.218903
Spine  1.40284 -1.86505 -1.0646
Spine1  2.83953 -3.70869 -2.25231
HEad  22.7612 0.444023 7.02032
LeftShoulder1  0 -2.42657e-020 -4.95415e-022
LeftArm  -71.5391 12.5721 -4.2513
LeftForeArm  57.3061 -22.8376 -4.2117
LeftHand  0.660188 -8.12095 -9.71944
RightShoulder  0 2.42657e-020 1.07489e-018
RightArm  -77.9667 -8.97513 5.12793
RightForeArm  66.4608 13.6598 2.39367
RightHand  -0.76708 23.0314 -3.39465
LeftUpLeg  3.46944 1.6335 -0.615761
LeftLeg  5.51014 -9.76973 -0.310983
LeftFoot  2.17644 0.00620922 -0.392658
LeftToes  -3.35578 2.37847e-007 4.89147e-008
